<?xml version="1.0" standalone="no"?>
<!DOCTYPE svg PUBLIC "-//W3C//DTD SVG 20010904//EN"
 "http://www.w3.org/TR/2001/REC-SVG-20010904/DTD/svg10.dtd">
<svg version="1.0" xmlns="http://www.w3.org/2000/svg"
 width="512.000000pt" height="512.000000pt" viewBox="0 0 512.000000 512.000000"
 preserveAspectRatio="xMidYMid meet">
<metadata>
Created by potrace 1.14, written by Peter Selinger 2001-2017
</metadata>
<g transform="translate(0.000000,512.000000) scale(0.100000,-0.100000)"
fill="#000000" stroke="none">
<path d="M2415 4783 c-254 -59 -455 -282 -490 -543 -2 -14 -4 -325 -4 -692
l-1 -668 -80 0 -80 0 0 44 c0 101 -29 120 -180 114 -147 -5 -139 12 -140 -311
0 -281 5 -308 55 -321 25 -6 25 -7 26 -119 0 -61 2 -125 4 -142 2 -16 6 -51 9
-77 3 -26 18 -84 32 -130 106 -336 364 -593 694 -691 47 -14 97 -28 113 -32
l27 -5 0 -285 0 -285 -177 -1 c-205 -1 -219 -2 -282 -32 -91 -43 -163 -141
-176 -241 l-7 -46 802 0 802 0 -5 33 c-17 119 -80 207 -185 258 -44 22 -62 24
-249 27 l-203 4 0 284 0 284 28 6 c262 58 456 174 619 371 109 131 199 334
219 493 4 30 8 62 10 70 1 8 3 67 3 131 1 116 1 117 26 123 50 13 55 43 55
316 0 330 5 320 -163 320 -92 0 -139 -14 -151 -45 -3 -9 -6 -39 -6 -66 l0 -49
-80 0 -80 0 -1 668 c0 367 -2 678 -5 692 -2 14 -6 36 -8 50 -31 176 -170 357
-337 438 -46 22 -112 47 -146 56 -77 18 -209 18 -288 -1z m-494 -2410 c0 -104
2 -199 5 -213 2 -14 6 -36 8 -50 31 -176 168 -354 336 -437 103 -51 184 -71
289 -71 163 0 326 65 435 173 79 77 94 97 133 170 61 117 72 181 73 433 l0
182 80 0 80 0 0 -44 c0 -64 15 -95 51 -108 l30 -10 -2 -129 c-2 -127 -16 -224
-44 -304 -161 -470 -664 -716 -1130 -553 -218 76 -410 253 -509 471 -50 111
-67 191 -73 357 l-5 155 32 14 c36 15 50 44 50 107 l0 44 80 0 80 0 1 -187z"/>
<path d="M1140 4528 c-282 -329 -338 -784 -143 -1163 48 -95 166 -255 186
-255 4 0 30 24 60 53 l54 54 -34 39 c-76 88 -168 247 -179 311 -3 15 -7 30
-10 34 -12 20 -27 124 -29 214 -8 226 71 446 217 609 l34 38 -52 54 c-28 30
-56 54 -60 54 -5 -1 -25 -19 -44 -42z"/>
<path d="M3878 4517 l-55 -52 48 -57 c91 -109 158 -244 189 -381 7 -29 14
-101 15 -162 6 -234 -66 -437 -217 -609 l-35 -40 54 -53 c61 -62 63 -61 130
21 142 175 222 391 228 616 5 196 -24 337 -106 503 -46 95 -170 267 -191 267
-3 0 -30 -24 -60 -53z"/>
<path d="M1364 4296 c-56 -68 -107 -165 -134 -251 -31 -99 -35 -272 -9 -375
26 -99 88 -222 145 -288 l46 -52 54 56 55 56 -36 46 c-52 69 -95 157 -110 226
-13 59 -13 202 -1 259 14 62 94 214 119 225 4 2 12 13 18 24 9 16 4 26 -33 61
-74 71 -68 71 -114 13z"/>
<path d="M3654 4296 c-57 -59 -58 -61 -25 -98 109 -125 154 -323 112 -491 -23
-89 -56 -158 -105 -216 -20 -24 -36 -45 -36 -47 0 -3 24 -29 54 -58 l54 -55
34 37 c82 91 141 213 166 342 4 19 6 85 6 145 0 127 -23 219 -81 325 -46 84
-104 159 -123 159 -8 0 -33 -19 -56 -43z"/>
<path d="M1619 4103 c-71 -88 -94 -154 -94 -269 1 -85 3 -97 37 -166 21 -41
46 -82 57 -92 19 -17 21 -16 75 39 l56 56 -24 32 c-61 83 -61 191 0 274 l24
32 -55 55 c-30 31 -57 56 -58 56 -2 0 -10 -8 -18 -17z"/>
<path d="M3425 4065 c-56 -56 -56 -57 -38 -79 32 -37 43 -65 49 -120 7 -62 -7
-116 -43 -164 l-24 -32 56 -55 c31 -31 61 -53 66 -49 22 13 77 111 92 163 25
86 17 194 -21 275 -17 36 -42 77 -55 92 l-24 26 -58 -57z"/>
</g>
</svg>
