<?xml version="1.0" standalone="no"?>
<!DOCTYPE svg PUBLIC "-//W3C//DTD SVG 20010904//EN"
 "http://www.w3.org/TR/2001/REC-SVG-20010904/DTD/svg10.dtd">
<svg version="1.0" xmlns="http://www.w3.org/2000/svg"
 width="330.000000pt" height="330.000000pt" viewBox="0 0 330.000000 330.000000"
 preserveAspectRatio="xMidYMid meet">
<metadata>
Created by potrace 1.14, written by Peter Selinger 2001-2017
</metadata>
<g transform="translate(0.000000,330.000000) scale(0.100000,-0.100000)"
fill="#000000" stroke="none">
<path d="M1515 2393 c-268 -57 -457 -201 -563 -431 -14 -31 -27 -61 -29 -67
-1 -5 -9 -37 -18 -70 -9 -33 -18 -106 -19 -163 -5 -218 81 -422 239 -570 195
-183 466 -249 725 -176 65 19 186 77 216 105 11 10 24 19 30 19 9 0 125 118
157 161 35 47 97 185 116 259 20 76 22 226 5 325 -39 233 -228 469 -446 556
-111 45 -170 56 -283 56 -61 0 -119 -2 -130 -4z m231 -132 c47 -26 83 -75 91
-125 l6 -36 -122 1 c-67 1 -124 -1 -127 -4 -20 -19 18 -27 132 -27 l124 0 0
-25 0 -24 -121 0 c-114 1 -156 -8 -135 -28 4 -5 60 -9 124 -10 64 0 120 -2
125 -2 4 -1 7 -10 7 -21 0 -19 -7 -20 -124 -20 -81 0 -127 -4 -132 -11 -12
-20 19 -28 116 -27 140 1 140 1 140 -22 0 -19 -7 -20 -117 -20 -112 0 -157 -9
-139 -27 4 -4 53 -9 109 -10 56 0 112 -2 125 -2 22 -1 22 -3 22 -129 0 -143
-7 -179 -44 -219 -14 -15 -26 -31 -26 -34 0 -4 -21 -17 -47 -29 -98 -46 -217
-8 -265 83 -21 40 -22 53 -23 340 -1 324 2 345 56 397 62 59 171 73 245 31z
m-326 -610 c1 -87 11 -130 47 -183 40 -61 110 -97 178 -93 66 4 115 25 153 65
50 52 62 88 62 188 0 97 4 103 58 94 21 -4 22 -8 22 -112 0 -94 -3 -112 -24
-153 -41 -75 -115 -135 -197 -157 l-39 -11 0 -97 0 -97 73 0 c39 1 78 -1 85
-3 7 -2 12 -21 12 -42 l0 -38 -199 0 c-214 -1 -208 -2 -207 53 l1 30 78 0 77
-1 0 97 0 96 -42 12 c-78 24 -156 89 -190 161 -18 37 -22 64 -23 152 -2 101
-1 107 19 110 49 8 56 0 56 -71z"/>
<path d="M3093 2276 c-28 -12 -54 -24 -57 -27 -3 -3 8 -43 25 -90 29 -79 67
-224 74 -279 21 -165 23 -252 12 -390 -9 -96 -39 -244 -68 -327 -10 -31 -19
-61 -19 -67 0 -10 118 -62 124 -54 12 14 74 223 82 278 2 14 8 50 13 80 12 69
12 412 0 477 -5 26 -14 73 -20 103 -19 99 -94 321 -107 319 -4 0 -30 -11 -59
-23z"/>
<path d="M119 2243 c-36 -90 -72 -222 -89 -318 -21 -120 -26 -439 -9 -531 5
-27 12 -62 15 -79 7 -43 42 -175 56 -208 9 -23 13 -25 26 -15 8 7 17 12 18 11
2 -1 23 6 48 16 l44 19 -24 82 c-13 45 -29 112 -34 149 -6 36 -13 80 -16 96
-8 42 -7 295 1 347 4 24 9 57 11 73 10 64 44 193 67 258 l25 68 -47 21 c-25
11 -54 25 -64 29 -14 8 -20 4 -28 -18z"/>
<path d="M2830 2165 c-19 -7 -47 -18 -62 -24 l-28 -10 16 -38 c9 -21 21 -47
25 -58 14 -33 47 -176 54 -235 24 -181 -2 -432 -60 -572 -5 -13 4 -21 38 -36
84 -37 83 -37 100 10 21 58 44 143 52 198 4 25 10 56 12 70 8 41 10 272 2 315
-4 22 -10 60 -13 85 -11 84 -81 311 -96 309 -3 0 -21 -6 -40 -14z"/>
<path d="M401 2133 c-16 -32 -60 -186 -74 -267 -21 -109 -16 -406 8 -503 3
-13 7 -31 9 -40 16 -69 29 -114 35 -117 5 -4 119 38 127 47 1 1 -6 33 -16 71
-28 101 -35 165 -35 331 1 160 15 249 60 376 l24 67 -60 26 c-72 31 -66 30
-78 9z"/>
<path d="M2533 2045 c-29 -13 -53 -26 -53 -28 0 -2 11 -31 24 -65 14 -35 25
-66 25 -70 0 -4 6 -29 13 -57 13 -56 17 -251 6 -335 -4 -30 -15 -77 -23 -104
-8 -27 -15 -53 -15 -57 0 -9 86 -49 106 -49 8 0 15 7 15 15 2 20 3 24 16 65
35 103 47 293 28 430 -12 90 -73 283 -88 279 -1 0 -26 -11 -54 -24z"/>
<path d="M661 1968 c-23 -68 -23 -66 -41 -178 -12 -71 -9 -281 4 -340 3 -14
11 -49 17 -77 7 -29 16 -53 20 -53 5 0 33 10 62 22 l54 22 -12 40 c-48 158
-34 400 31 571 4 11 -7 20 -41 35 -26 11 -53 20 -60 20 -7 0 -23 -28 -34 -62z"/>
</g>
</svg>
