<?xml version="1.0" standalone="no"?>
<!DOCTYPE svg PUBLIC "-//W3C//DTD SVG 20010904//EN"
 "http://www.w3.org/TR/2001/REC-SVG-20010904/DTD/svg10.dtd">
<svg version="1.0" xmlns="http://www.w3.org/2000/svg"
 width="512.000000pt" height="512.000000pt" viewBox="0 0 512.000000 512.000000"
 preserveAspectRatio="xMidYMid meet">
<metadata>
Created by potrace 1.14, written by Peter Selinger 2001-2017
</metadata>
<g transform="translate(0.000000,512.000000) scale(0.100000,-0.100000)"
fill="#000000" stroke="none">
<path d="M2300 4955 c-41 -7 -95 -15 -120 -19 -51 -9 -129 -27 -210 -49 -483
-136 -917 -453 -1204 -882 -160 -239 -303 -604 -332 -847 -4 -29 -8 -56 -10
-59 -21 -36 -21 -542 0 -578 2 -3 6 -28 10 -56 11 -92 52 -255 96 -380 86
-243 260 -537 422 -711 136 -147 152 -158 199 -142 29 10 59 52 59 83 0 9 -28
46 -63 83 -34 37 -85 94 -112 127 -28 33 -55 66 -62 73 -7 7 -36 50 -66 95
-163 247 -250 462 -312 767 -31 153 -37 541 -10 640 2 8 6 33 10 55 12 80 58
252 92 345 66 177 204 427 298 539 147 175 234 261 380 370 282 212 592 337
955 386 95 13 433 13 515 0 309 -49 598 -160 841 -323 135 -91 193 -139 316
-263 484 -489 681 -1210 513 -1879 -28 -113 -31 -123 -70 -225 -96 -255 -245
-487 -454 -708 -56 -58 -62 -74 -45 -115 14 -35 55 -56 89 -48 17 4 90 73 177
166 32 35 136 176 181 245 111 174 212 399 263 590 27 102 28 108 44 195 5 30
12 69 15 85 17 97 23 335 12 470 -11 131 -18 173 -52 329 -71 321 -270 699
-496 941 -99 106 -130 135 -238 228 -51 45 -219 160 -291 201 -247 141 -482
220 -805 271 -75 12 -458 12 -535 0z"/>
<path d="M2438 4495 c-2 -1 -30 -5 -63 -8 -93 -9 -261 -46 -355 -79 -430 -150
-776 -452 -974 -853 -55 -112 -117 -273 -130 -340 -3 -11 -9 -40 -14 -65 -12
-50 -18 -88 -28 -175 -8 -70 -9 -304 -1 -355 3 -19 9 -57 12 -85 10 -70 60
-261 83 -315 11 -26 30 -50 43 -56 37 -16 86 1 104 36 15 28 14 36 -15 128
-35 115 -58 218 -66 308 -69 708 334 1358 999 1608 63 24 206 62 268 71 19 2
60 9 92 13 64 10 307 8 377 -2 433 -67 797 -286 1045 -631 73 -101 171 -291
210 -408 100 -300 103 -659 8 -944 -31 -95 -33 -138 -7 -158 30 -23 62 -28 94
-15 26 11 34 24 64 119 36 111 39 121 57 231 45 274 19 577 -71 835 -46 131
-141 316 -218 425 -68 95 -236 274 -327 347 -228 184 -509 303 -840 358 -38 7
-341 15 -347 10z"/>
<path d="M2480 3927 c-3 -3 -23 -7 -45 -10 -167 -20 -365 -151 -470 -312 l-46
-70 347 -5 346 -5 19 -24 c26 -32 24 -77 -6 -106 l-24 -25 -370 0 -370 0 -6
-42 c-3 -24 -7 -59 -8 -78 l-2 -35 377 -5 c340 -5 379 -7 398 -22 11 -10 20
-23 21 -30 0 -7 2 -22 4 -32 2 -11 -8 -31 -25 -47 l-28 -29 -374 0 -374 0 1
-77 1 -78 384 -5 c212 -3 386 -7 387 -8 11 -10 31 -62 29 -73 -6 -37 -19 -57
-42 -67 -17 -9 -136 -12 -392 -12 l-367 0 0 -80 -1 -80 376 0 c365 0 377 -1
398 -20 12 -12 22 -26 23 -33 0 -7 2 -21 4 -31 2 -11 -8 -31 -25 -47 l-28 -29
-374 0 -373 0 0 -160 0 -160 720 2 720 3 0 585 c0 626 -3 675 -50 793 -89 219
-272 380 -498 436 -65 16 -246 29 -257 18z"/>
<path d="M1557 2476 c-30 -23 -33 -61 -32 -321 2 -254 9 -321 47 -450 88 -305
358 -582 658 -676 41 -13 80 -26 85 -30 7 -5 10 -72 10 -176 l0 -168 -400 -5
-400 -5 -42 -27 c-93 -61 -121 -131 -118 -296 2 -101 3 -106 29 -129 l27 -23
1144 0 1144 0 28 24 c26 23 27 27 28 132 2 167 -27 235 -123 291 l-47 28 -395
5 -394 5 -1 171 -1 171 70 23 c102 33 170 65 261 125 254 167 417 426 461 730
4 28 8 166 8 308 l1 259 -28 24 c-36 30 -68 30 -103 0 l-28 -23 -1 -264 c-2
-297 -13 -375 -70 -510 -78 -186 -231 -351 -405 -439 -57 -29 -200 -83 -200
-75 0 2 -15 -1 -32 -6 -50 -15 -236 -20 -304 -9 -279 48 -506 207 -640 447
-35 62 -79 176 -89 231 -2 15 -8 41 -11 57 -4 17 -8 147 -10 290 -2 314 0 280
-26 305 -25 23 -74 26 -101 6z"/>
<path d="M1850 1918 c0 -6 7 -41 16 -77 135 -542 803 -732 1201 -343 92 91
177 239 197 347 5 22 10 50 12 63 l4 22 -715 0 c-545 0 -715 -3 -715 -12z"/>
</g>
</svg>
